# xmcd
#
# Track frame offsets: 
#        150
#        15960
#        26712
#        41979
#        57314
#        68252
#        92696
#        101993
#        117356
#        131015
#        139161
#        157921
#        173969
#        196648
#        205952
#        215533
#        230418
#        241595
#        258140
#        269743
#        283181
#        299051
#        310726
#        322868
#        332972
#
# Disc length: 4647 seconds
#
# Revision: 0
# Processed by: cddbd v1.5.2PL0 Copyright (c) Steve Scherf et al.
# Submitted via: ExactAudioCopy v1.3
#
DISCID=72122519
DTITLE=Various Artist - 101 Hits Soul Classics CD2
DYEAR=2009
DGENRE=Soul
TTITLE0=Harold Melvin and The Blue Notes - IF YOU DON'T KNOW ME BY NOW
TTITLE1=Lee Dorsey - YA YA 
TTITLE2=Mary Wells - MY GUY
TTITLE3=Rufus Thomas - FUNKY CHICKEN
TTITLE4=The Tymes - MY BABY
TTITLE5=BOBBY WOMACK and PATTY LABELLE - LOVE HAS FINALLY COME AT LAST
TTITLE6=Ike and Tina Turner - AIN'T NOBODY'S BUSINESS
TTITLE7=Clarence Carter - PATCHES
TTITLE8=Edwin Starr - STOP HER ON SIGHT
TTITLE9=Maurice Williams and The Zodiacs - STAY
TTITLE10=Edwin Starr - 25 MILES
TTITLE11=Clarence Carter - LOVELY DAY
TTITLE12=DEE DEE BRIDGEWATER feat. RAY CHARLES - TILL THE NEXT SOMEWHE
TTITLE12=RE
TTITLE13=The Tams - WHAT KIND A FOOL
TTITLE14=Little Anthony and The Imperials - TEARS ON MY PILLOW
TTITLE15=Percy Sledge - OUT OF LEFT FIELD
TTITLE16=Johnny Otis - PLEASE DON'T LEAVE ME 
TTITLE17=Barry White - LONG BLACK VEIL
TTITLE18=Brook Benton - HOTEL HAPPINESS
TTITLE19=The Drifters - ON BROADWWAY
TTITLE20=Percy Sledge - JUST OUT OF REACH
TTITLE21=The Driffers - UNDER THE BROADWALK
TTITLE22=The Supremes - STOP IN THE NAME OF LOVE
TTITLE23=Betty Everett - IT'S IN HIS KISS
TTITLE24=The Trammps - HOLD BACK THE NIGHT
EXTD=
EXTT0=
EXTT1=
EXTT2=
EXTT3=
EXTT4=
EXTT5=
EXTT6=
EXTT7=
EXTT8=
EXTT9=
EXTT10=
EXTT11=
EXTT12=
EXTT13=
EXTT14=
EXTT15=
EXTT16=
EXTT17=
EXTT18=
EXTT19=
EXTT20=
EXTT21=
EXTT22=
EXTT23=
EXTT24=
PLAYORDER=
